<!DOCTYPE svg PUBLIC "-//W3C//DTD SVG 1.1//EN" "http://www.w3.org/Graphics/SVG/1.1/DTD/svg11.dtd">

<!-- Uploaded to: SVG Repo, www.svgrepo.com, Transformed by: SVG Repo Mixer Tools -->
<svg height="800px" width="800px" version="1.1" id="Layer_1" xmlns="http://www.w3.org/2000/svg" xmlns:xlink="http://www.w3.org/1999/xlink" viewBox="0 0 512 512" xml:space="preserve" fill="currentColor">

<g id="SVGRepo_bgCarrier" stroke-width="0"/>

<g id="SVGRepo_tracerCarrier" stroke-linecap="round" stroke-linejoin="round"/>

<g id="SVGRepo_iconCarrier"> <g> <path style="fill:currentColor;" d="M407.66,216.005c-8.091,0-14.653-6.56-14.653-14.653s6.562-14.653,14.653-14.653 c27.472,0,49.821-22.349,49.821-49.821s-22.349-49.821-49.821-49.821c-8.091,0-14.653-6.56-14.653-14.653 s6.562-14.653,14.653-14.653c43.63,0,79.127,35.496,79.127,79.127S451.291,216.005,407.66,216.005z"/> <path style="fill:currentColor;" d="M104.34,216.005c-43.63,0-79.127-35.496-79.127-79.127S60.71,57.751,104.34,57.751 c8.091,0,14.653,6.56,14.653,14.653s-6.562,14.653-14.653,14.653c-27.472,0-49.821,22.349-49.821,49.821 s22.349,49.821,49.821,49.821c8.091,0,14.653,6.56,14.653,14.653S112.433,216.005,104.34,216.005z"/> <path style="fill:currentColor;" d="M281.617,377.191h-51.232c-4.164,0-8.131-1.772-10.909-4.872L74.82,210.975 c-3.86-4.305-4.828-10.476-2.471-15.755c2.356-5.28,7.599-8.679,13.38-8.679h340.542c5.781,0,11.022,3.4,13.38,8.679 c2.358,5.28,1.389,11.451-2.471,15.755L292.524,372.319C289.748,375.42,285.781,377.191,281.617,377.191z M236.927,347.885h38.147 l118.38-132.038H118.548L236.927,347.885z"/> <path style="fill:currentColor;" d="M290.788,512h-69.573c-8.091,0-14.653-6.56-14.653-14.653V362.538 c0-8.093,6.562-14.653,14.653-14.653s14.653,6.56,14.653,14.653v120.156h40.267v-38.098c0-8.093,6.562-14.653,14.653-14.653 s14.653,6.56,14.653,14.653v52.751C305.441,505.44,298.88,512,290.788,512z"/> </g> <path style="fill:#9480b280;" d="M304.669,309.768L256,324.369l-48.669-14.602c-27.495-8.25-55.169,12.339-55.169,41.046 c0,28.707,27.674,49.296,55.169,41.046L256,377.258l48.669,14.602c27.495,8.25,55.169-12.339,55.169-41.046 C359.838,322.107,332.166,301.518,304.669,309.768z"/> <path style="fill:currentColor;" d="M317.063,408.35C317.061,408.35,317.063,408.35,317.063,408.35c-5.592,0-11.177-0.825-16.605-2.454 L256,392.556l-44.458,13.339c-5.428,1.628-11.015,2.454-16.603,2.454c-31.667,0-57.43-25.81-57.43-57.536 s25.763-57.536,57.43-57.536c5.589,0,11.176,0.825,16.603,2.454L256,309.072l44.458-13.339c5.428-1.628,11.015-2.454,16.603-2.454 c31.667,0,57.43,25.81,57.43,57.536c0,15.595-6.118,30.174-17.225,41.048C346.41,402.494,332.129,408.35,317.063,408.35z M256,362.605c1.418,0,2.838,0.207,4.211,0.618l48.669,14.602c2.693,0.807,5.447,1.218,8.182,1.218c7.249,0,14.43-2.96,19.701-8.121 c5.43-5.316,8.421-12.458,8.421-20.108c0-15.566-12.616-28.229-28.124-28.229c-2.736,0-5.488,0.41-8.181,1.218l-48.669,14.602 c-2.747,0.825-5.675,0.825-8.423,0l-48.669-14.602c-2.693-0.807-5.445-1.218-8.181-1.218c-15.507,0-28.124,12.665-28.124,28.229 c0,15.565,12.616,28.229,28.124,28.229c2.734,0,5.488-0.41,8.181-1.218l48.669-14.602C253.163,362.812,254.583,362.605,256,362.605z "/> <path style="fill:#9480b280;" d="M232.586,167.175c-54.973,95.216-133.36-40.554-23.414-40.554 c-109.945,0-31.558-135.77,23.414-40.556c-54.973-95.216,101.801-95.216,46.829,0c54.973-95.216,133.36,40.556,23.414,40.556 c109.945,0,31.558,135.77-23.414,40.554C334.387,262.39,177.613,262.39,232.586,167.175z"/> <path style="fill:currentColor;" d="M256,253.239c-18.353,0-35.027-9.132-43.514-23.833c-2.61-4.521-4.893-10.218-5.917-17.171 c-6.532,2.588-12.606,3.461-17.826,3.461c-0.001,0-0.006,0-0.007,0c-16.973,0-33.214-9.869-42.392-25.76 c-9.18-15.896-9.61-34.902-1.122-49.605c2.617-4.534,6.422-9.372,11.954-13.745c-11.654-9.183-18.073-22.27-18.073-36.854 c0-28.291,22.731-52.192,49.639-52.192c5.221,0,11.293,0.872,17.827,3.461c1.024-6.953,3.306-12.649,5.917-17.169 C220.973,9.132,237.647,0,256,0s35.027,9.132,43.514,23.832c2.611,4.52,4.893,10.218,5.917,17.169 c6.534-2.589,12.608-3.461,17.827-3.461c26.911,0,49.645,23.901,49.645,52.192c0,14.611-6.441,27.716-18.138,36.904 c-0.021,0.015-0.037,0.029-0.057,0.044c12.899,10.149,18.189,24.06,18.189,36.822c0.003,28.289-22.729,52.192-49.636,52.196 c-0.001,0-0.004,0-0.007,0c-5.219,0-11.292-0.872-17.823-3.46c-1.024,6.95-3.307,12.649-5.917,17.168 C291.028,244.107,274.355,253.239,256,253.239z M247.242,167.191c-0.001,2.485-0.634,5.003-1.966,7.309 c-9.738,16.869-12.439,31.541-7.41,40.252c3.908,6.768,11.931,9.18,18.135,9.18s14.227-2.412,18.135-9.18 c5.03-8.711,2.33-23.383-7.41-40.252c-1.332-2.306-1.965-4.824-1.966-7.309c-0.001-5.066,2.627-9.992,7.329-12.707 c7.013-4.047,15.97-1.646,20.016,5.363c9.74,16.87,21.095,26.546,31.153,26.544c11.453-0.001,20.336-12.304,20.334-22.887 c0-13.921-15.238-22.232-40.762-22.232c-8.091,0-14.653-6.56-14.653-14.653s6.562-14.653,14.653-14.653 c19.149,0,28.969-4.556,33.834-8.377c4.601-3.613,6.934-8.276,6.934-13.857c0-10.583-8.884-22.885-20.339-22.885 c-10.059,0-21.414,9.675-31.154,26.544c-4.046,7.009-13.006,9.409-20.016,5.363c-4.702-2.715-7.331-7.642-7.329-12.707 c0.001-2.485,0.634-5.003,1.966-7.309c9.738-16.869,12.439-31.539,7.41-40.252c-3.907-6.767-11.929-9.179-18.135-9.179 c-6.206,0-14.228,2.412-18.135,9.179c-5.03,8.713-2.33,23.383,7.41,40.252c1.332,2.306,1.965,4.824,1.966,7.309 c0.001,5.066-2.627,9.992-7.329,12.707c-7.006,4.049-15.968,1.646-20.016-5.363c-9.738-16.869-21.095-26.544-31.154-26.544 c-11.451,0-20.333,12.303-20.333,22.885c0,5.581,2.333,10.243,6.932,13.857c4.865,3.822,14.684,8.377,33.83,8.377 c8.091,0,14.653,6.56,14.653,14.653s-6.562,14.653-14.653,14.653c-19.48,0-33.538,4.998-38.567,13.711 c-3.908,6.77-1.984,14.924,1.12,20.298c3.102,5.372,9.201,11.111,17.015,11.11c10.061-0.001,21.419-9.677,31.157-26.544 c4.046-7.007,13.005-9.412,20.016-5.363C244.615,157.199,247.243,162.125,247.242,167.191z"/> </g>

</svg>