<?xml version="1.0" encoding="iso-8859-1"?>
<!-- Uploaded to: SVG Repo, www.svgrepo.com, Generator: SVG Repo Mixer Tools -->
<svg xmlns="http://www.w3.org/2000/svg" xmlns:xlink="http://www.w3.org/1999/xlink" version="1.1" id="Capa_1"  viewBox="0 0 455 455" xml:space="preserve" width="512" height="512">
<g>
	<path style="fill:#9480b2;" d="M229.31,0.01L227.5,455l136.72-182.98c21.14-28.369,33.64-63.55,33.64-101.659   C397.86,76.87,322.57,0.98,229.31,0.01z"/>
	<path style="fill:#bcb0cf;" d="M367.86,170.36c0,38.11-10.3,73.29-27.72,101.66L227.5,455L90.78,272.02   c-21.14-28.37-33.64-63.55-33.64-101.66C57.14,76.27,133.41,0,227.5,0c0.61,0,1.21,0,1.81,0.01   C306,1.19,367.86,77.01,367.86,170.36z"/>
	<path style="fill:#bcb0cf;" d="M228.92,30.37V310.35c76.67-0.76,138.58-63.14,138.58-139.989   C367.5,93.51,305.59,31.13,228.92,30.37z"/>
	<path style="fill:#FFFFFF;" d="M228.92,30.37c60.1,0.97,108.58,63.27,108.58,139.99s-48.48,139.02-108.58,139.99   c-0.47,0.01-0.95,0.01-1.42,0.01c-77.32,0-140-62.68-140-140s62.68-140,140-140C227.97,30.36,228.45,30.36,228.92,30.37z"/>
	<path style="fill:#E44670;" d="M269.478,98.768c-1.953,0-3.873,0.12-5.76,0.349l-36.153,163.8   c2.727-1.505,89.935-49.931,89.935-116.127C317.5,120.27,295.998,98.768,269.478,98.768z"/>
	<path style="fill:#FF6288;" d="M263.718,99.118c18.011,2.88,31.964,23.127,31.964,47.673c0,66.033-65.749,114.393-68.116,116.127   c-0.044,0.022-0.065,0.033-0.065,0.033s-90-48.916-90-116.16c0-26.52,21.491-48.022,48.011-48.022   c18.087,0,33.796,10.015,41.989,24.775C234.798,110.376,248.096,100.983,263.718,99.118z"/>
</g>















</svg>