<?xml version="1.0" encoding="UTF-8"?>
<svg width="64" height="37" fill="none" version="1.1" viewBox="0 0 64 37" xml:space="preserve" xmlns="http://www.w3.org/2000/svg"><defs><filter id="filter3" x="-.0012365" y="-.0021947" width="1.0025" height="1.0044" color-interpolation-filters="sRGB"><feColorMatrix type="hueRotate" values="0"/><feColorMatrix type="saturate" values="1"/><feColorMatrix result="fbSourceGraphic" values="2 -1 0 0 0 0 2 -1 0 0 -1 0 2 0 0 0 0 0 1 0 "/><feColorMatrix in="fbSourceGraphic" result="fbSourceGraphicAlpha" values="0 0 0 -1 0 0 0 0 -1 0 0 0 0 -1 0 0 0 0 1 0"/><feColorMatrix in="fbSourceGraphic" type="hueRotate" values="0"/><feColorMatrix type="saturate" values="1"/><feColorMatrix result="fbSourceGraphic" values="2 -1 0 0 0 0 2 -1 0 0 -1 0 2 0 0 0 0 0 1 0 "/><feColorMatrix in="fbSourceGraphic" result="fbSourceGraphicAlpha" values="0 0 0 -1 0 0 0 0 -1 0 0 0 0 -1 0 0 0 0 1 0"/><feColorMatrix in="fbSourceGraphic" type="hueRotate" values="0"/><feColorMatrix type="saturate" values="1"/><feColorMatrix result="fbSourceGraphic" values="2 -1 0 0 0 0 2 -1 0 0 -1 0 2 0 0 0 0 0 1 0 "/><feColorMatrix in="fbSourceGraphic" result="fbSourceGraphicAlpha" values="0 0 0 -1 0 0 0 0 -1 0 0 0 0 -1 0 0 0 0 1 0"/><feColorMatrix in="fbSourceGraphic" type="hueRotate" values="0"/><feColorMatrix type="saturate" values="1"/><feColorMatrix values="2 -1 0 0 0 0 2 -1 0 0 -1 0 2 0 0 0 0 0 1 0 "/></filter></defs><path transform="matrix(1.1794 0 0 1.2011 -3.9614 -2.3409)" d="m9.9361 2.0346-0.57665 0.080272-0.51407 0.13543-0.43321 0.36822c-0.23826 0.20253-1.346 1.3643-2.4124 2.6221l-1.9418 2.2904-0.355 0.47827c-0.44809 0.60351-0.28594 1.041 0.036599 1.9566 0.34871 0.98991 0.74436 1.7202 1.1034 2.0363l0.30119 0.26516 7.1973-0.09168-0.34572 0.44357c-1.045 1.3399-1.945 3.7931-2.0836 5.6805l-0.08272 1.1269 0.00407 1.2305c0.84587 6.1951 5.1972 10.575 11.298 11.764l0.88833 0.12507 1.7671 0.12054 1.868-0.13232 1.0899-0.25241 1.2154-0.46401 1.327-0.61988 1.2459-0.74057 1.9858-1.5481 1.3915-1.3417 0.2866 0.37055c1.2531 1.6207 3.6504 3.1435 6.3171 4.0129l1.2065 0.31526 1.1828 0.22594 1.2071 0.08505 1.2363-0.08403 1.2245-0.21318 1.2337-0.33967c3.7486-1.0321 6.6694-3.7272 8.4147-7.1357l0.48053-1.1256 0.34718-1.1039 0.27519-1.2679 0.13548-1.1941 0.0155-1.241-0.08814-1.1491-0.18387-1.1962-0.44872-1.386c-0.74861-2.3123-1.8048-3.8969-3.5208-5.4326l-1.03-0.78356-0.91971-0.55285c-0.58058-0.29501-1.6311-0.73114-2.3344-0.96923l-1.652-0.39981-2.2907-0.1986-2.2567 0.19913-1.3574 0.31695-1.3235 0.38298-1.1011 0.51996c-1.4114 0.66657-2.9977 1.8222-4.159 3.0296-0.32695 0.4178-0.54507 0.7719-0.97446 1.3501l-0.59261 0.97064c-0.69825 1.429-1.117 2.5468-1.4079 3.8639l-0.19977 1.4459-0.05706 1.465 0.1545 2.1106 0.1559 0.88507c0.32234 1.2504 0.68912 2.1322 1.2585 3.0998 0.42891 0.72882 0.55732 0.74729 0.42644 0.84894-0.11051 0.08583-0.26319 0.21504-0.75892 0.66044-1.6131 1.4495-3.1134 2.4766-4.7897 3.3l-1.1138 0.42771-1.2194 0.3198-1.2381 0.16101-1.3273-0.02332-1.3333-0.13465-1.2458-0.23913c-1.5509-0.38514-2.5084-0.88249-3.9077-1.5267l-1.0711-0.74939-1.2058-1.0371-1.0701-1.1533-0.61427-0.86954c-0.85498-1.2566-1.4102-2.4774-1.827-4.0178l-0.30728-1.3273-0.10075-1.8893 0.15351-1.8893 0.21581-1.0044c0.37129-1.2512 1.1819-2.7986 1.7458-3.5589l0.3701-0.49899 0.32425-0.0189c0.2576-0.01508 1.4449-0.06568 1.757-0.22166 0.0172-0.01954 0.03318-0.04021 0.04826-0.06137 0.0084-0.01318 0.01581-0.02701 0.02282-0.04091l0.0024-0.20612c0.0016-0.22694-0.7403-3.2102-1.1421-5.5386l-0.40454-2.3442-0.23967-0.4749-0.3452-0.45756-0.30885-0.22269-0.48279-0.23357-1.1265-0.33378zm0.32902 0.43399c0.42515 0.00412 1.9549 0.44523 2.0783 0.56579l0.12009 0.1173-0.63869 0.77916c-0.35133 0.42859-0.7138 0.83685-0.80517 0.95473l-0.10871 0.14087-0.17233-0.42881c-0.10184-0.25371-0.32795-0.78507-0.4592-1.1557-0.31418-0.88724-0.34548-0.97658-0.014345-0.97337zm-0.92953 0.1432 0.14689 0.076392c0.051353 0.14959 0.21136 0.57077 0.28076 0.83561 0.15435 0.35744 0.33181 0.989 0.43879 1.2227l0.14448 0.4257-0.28846-0.00517c-0.35913-0.0064268-1.6329-0.0028454-2.5277-0.11316l-0.63736-0.078461 1.0507-1.1153 1.0509-1.115 0.23199-0.13051zm3.4628 0.98477 0.17524 0.275c0.09416 0.12206 0.14928 0.32526 0.18082 0.4112 0.0516 0.33718 0.39432 2.8724 0.7161 4.4246 0.05486 0.2648 0.10182 0.49828 0.14103 0.7007 0.01008 9.181e-4 0.01964 0.011284 0.01989 0.030813 1.05e-4 0.00859-1.39e-4 0.017092 0 0.025639 0.0041 0.00717 0.0065 0.016551 0.0065 0.028226 0 0.00167-1.7e-5 0.00342 0 0.00517 0.0094 0.00117 0.01834 0.010482 0.02013 0.028744 0.0016 0.012035 0.0033 0.024004 0.0049 0.035997 0.0016 0.010324 0.0041 0.020573 0.0081 0.030296 0.0033 0.00717 0.0049 0.014689 0.0065 0.022268 0.0049 0.010224 0.0096 0.020848 0.0141 0.031332 0.0041 0.00953 0.0073 0.019529 0.0098 0.02952 0.0033 0.00938 0.0057 0.018771 0.0087 0.028226 0.0033 0.01393 0.0081 0.027333 0.01174 0.041171 0.0041 0.016258 0.0073 0.032875 0.01117 0.0492 0.0041 0.013954 0.0073 0.027717 0.01117 0.041689 0.0049 0.018011 0.0065 0.036556 0.0087 0.054892 0.0016 0.015699 0.0049 0.031164 0.0084 0.046613 0.0041 0.018161 0.0065 0.036539 0.0096 0.054892 0.0024 0.014956 0.0057 0.029479 9e-3 0.044276 0.0024 0.01257 0.0057 0.02501 0.0065 0.03781 0.0016 0.01448 0.0049 0.02862 0.0085 0.04272 0.0024 0.01487 0.0057 0.02961 0.0081 0.04453 0.0016 0.01102 0.0033 0.02218 0.0057 0.03288 0.0041 0.01479 0.0065 0.02972 0.01027 0.04453 0.0033 0.01278 0.0057 0.02545 0.0093 0.03807 0.0033 0.01523 0.0065 0.03034 0.01141 0.04531 0.0057 0.01745 0.01125 0.03495 0.01622 0.05256 0.0033 0.01255 0.0049 0.02541 0.0065 0.03832 0.0016 8e-3 0.0041 0.0156 0.0065 0.0233 0.0024 0.01004 0.0057 0.01989 0.0092 0.02978 0.0049 0.01206 0.0087 0.02426 0.01272 0.03651 0.0057 0.0136 0.01133 0.02685 0.01614 0.04065 0.0041 0.01196 0.0091 0.02357 0.01329 0.03547 0.0049 0.01277 0.0085 0.02602 0.01304 0.03885 0.0049 0.01406 0.0086 0.02858 0.01247 0.04299 0.0033 0.0136 0.0083 0.0267 0.01223 0.04014 0.0033 0.01245 0.0057 0.02489 0.0089 0.03729 0.0024 0.01139 0.0065 0.02234 0.0098 0.03366 0.0016 0.0075 0.0016 0.01384 0.0016 0.01917 0.0049 0.01974 0.0097 0.03987 0.0128 0.06007 0.0049 0.03094 0.01264 0.06124 0.01907 0.09193 0.0049 0.02257 0.01182 0.04485 0.01989 0.06655 0.0096 0.0283 0.01915 0.05659 0.02943 0.08468 0.0099 0.02674 0.01589 0.05466 0.02437 0.08182 0.0088 0.02488 0.01475 0.05032 0.01989 0.07612 0.0065 0.02505 0.01443 0.04987 0.02258 0.07457 0.0081 0.0228 0.01679 0.04529 0.0247 0.06811 0.0065 0.01941 0.01231 0.039 0.01622 0.05904 0.0033 0.01852 0.0081 0.03648 0.01484 0.05412 0.0073 0.01832 0.01288 0.03708 0.01826 0.05593 0.0041 0.01235 0.0073 0.02488 0.01272 0.03678 0.0024 0.0059 0.0049 0.01122 0.0049 0.01631 0 7.91e-4 0 0.0017 0.0016 0.0026 0.0041 0.01179 0.0049 0.02423 0.0057 0.03651v0.01761c1.22e-4 0.0048 0 9e-3 -0.0016 0.01268v2.65e-4c-0.0016 0.0077-0.0057 0.01297-0.0106 0.0158-0.03538 0.04939-0.08687 0.08663-0.1681 0.08778l-0.31285 0.0045-4.4029-0.05489-4.291-0.0033c0.15077-0.09057 0.43445-0.42519 1.2379-1.2359l0.65279-0.65937 0.22615 0.123 0.24843 0.10332 2.4073 0.7411c2.6055 0.77394 3.3988 0.93869 3.8483 0.79936l0.14476-0.04479c0.0049-8e-3 0.0128-0.01616 0.02331-0.02382 0.01084-0.0079 0.02192-0.01571 0.03293-0.02356 0.01076-0.0072 0.02095-0.015 0.03049-0.02356 0.0024-0.0028 0.0057-0.0058 0.0081-0.0088 0.01166-0.01446 0.02176-0.02955 0.03016-0.04609 0.0033-0.0047 0.0057-0.0085 0.0081-0.01165v-0.09996c0-0.01687 0.0033-0.03023 0.0093-0.04014-0.0041-0.02623-0.0073-0.05249-0.01166-0.07872-0.0049-0.033-0.01036-0.06597-0.01695-0.09866-0.0057-0.02022-0.01223-0.04035-0.01907-0.06034-0.01329-0.03942-0.0251-0.07922-0.03472-0.11963-0.0096-0.04036-0.01785-0.08097-0.02812-0.12118-0.0065-0.02459-0.01304-0.04935-0.02013-0.0738-0.0057-0.01255-0.01182-0.02509-0.01695-0.03807-0.0087-0.02299-0.01679-0.04622-0.02494-0.0694-0.0093-0.02712-0.01785-0.05464-0.02413-0.0826-0.0065-0.02487-0.01239-0.04955-0.01777-0.07457-0.0016-0.0063-0.0024-0.01264-0.0041-0.0189-0.0024-0.0038-0.0049-0.0085-0.0065-0.0145-0.0016-0.0049-0.0024-0.0096-0.0049-0.01423-0.0016-0.0053-0.0024-0.01066-0.0049-0.0158-0.0033-0.0062-0.0057-0.01254-0.0087-0.0189-0.0033-0.0078-0.0065-0.01579-0.0093-0.02408-0.0016-0.0069-0.0041-0.01367-0.0049-0.02072-0.03099-0.06188-0.07207-0.16179-0.12304-0.29882-0.087271-0.23516-0.44117-0.90481-0.78643-1.4882-0.34525-0.58335-0.89493-1.557-1.2214-2.1637l-0.59362-1.1034 0.66811-0.78408zm-6.2593 1.796 0.0851 0.71935c0.04687 0.39572 0.13146 1.116 0.18798 1.6005l0.10287 0.88093 0.023313 0.36977-0.014346 0.18748-0.60739-0.028744c-0.44064-0.096655-0.46918-0.056403-1.4924-0.27241-0.41685-0.087823-0.84612-0.22075-0.82745-0.26179 0.052984-0.11657 0.64494-0.9866 1.5825-2.078zm0.5785 0.19447 1.612 0.025631 1.6119 0.025639-1.4123 1.6572c-0.77687 0.91148-1.4258 1.6742-1.442 1.6948-0.016221 0.02064-0.067656-0.39699-0.11427-0.92806-0.046544-0.53107-0.123-1.3053-0.16995-1.7204zm3.7197 0.26671 0.18002 0.067587c0.09905 0.037123 0.25955 0.25714 0.35686 0.48889 0.09731 0.23174 0.43978 0.85687 0.76091 1.3892 0.66913 1.1093 1.4506 2.6051 1.5897 3.0426l0.09492 0.2983-0.38258-0.0082c-0.46126-0.00997-5.1366-1.4658-5.4236-1.598l-0.24392-0.11238 1.5695-1.7976zm12.889 0.65513-1.4672 0.098657c-2.7154 0.27449-4.6992 1.0007-6.4662 2.2146-0.84811 0.58261-1.1911 0.74697-1.0896 1.0676l0.0723 0.33079 0.81114-0.62605c1.4037-0.99276 2.6622-1.6379 4.5806-2.1153l1.2967-0.28432 1.1917-0.15873 1.3744-0.026156 1.1756 0.094257 1.1279 0.2337 1.4828 0.49963c2.6067 0.91202 4.2738 2.1089 5.5614 3.3695 0.53513 0.52393 0.70848 1.0779 0.91409 0.71986 0.18046-0.23694 0.25336-0.42205 0.30236-0.32471l-0.93532-0.89712c-1.5668-1.5748-3.3392-2.5931-6.053-3.4776l-1.4752-0.43658-1.1981-0.1867zm19.735 0.92262 1.7138-0.14864 1.6798 0.14993 0.92634 0.19162c4.6557 0.96347 7.8724 4.371 8.9903 9.5237l0.15199 0.88396 0.04421 1.1868v1.1673l-0.20282 1.1362c-0.52474 2.939-2.1424 5.5579-4.6471 7.5236l-1.108 0.86954-1.3309 0.67274c-1.4331 0.72437-2.6223 1.139-3.901 1.3602-1.8633 0.32234-3.8626 0.07293-5.9616-0.74343-4.6399-1.8046-7.1611-4.9234-7.6965-9.5214l-0.04842-1.1898 0.05135-1.4825 0.21903-1.4827 0.26906-1.1722 0.39795-1.1891 0.75945-1.6368c0.59072-0.98985 0.6628-1.1163 0.70588-1.1777l-0.0082 0.03367 0.57177-0.70226 0.04995-0.05962 0.23603-0.23318c1.9164-1.9207 4.2566-3.1775 6.913-3.713zm-39.397 1.7808c0.08823-0.00375 0.61549 0.15338 0.97989 0.21492l0.93059 0.15718 0.4682 0.075874 0.48464 0.030555-0.71955 0.71184-1.183 1.1023c-0.38012-0.49478-1.1101-2.1551-0.97221-2.2898 0.00163-0.00158 0.0057-0.00259 0.011412-0.00284zm43.634 1.7626-0.91043-0.03599-0.9107 0.16313-0.64691 0.26386-0.56179 0.39645-0.41571 0.38505c-0.37365 0.3435-0.97229 0.97284-1.1551 1.2458l-0.40758 0.59011-0.0092 0.0068c-0.09419 0.11637-1.5996-1.0223-2.0121-2.0874l-0.29535-0.76233-0.26406-0.14915-0.34042-0.21544 0.21819 0.58832c0.07555 0.08949 0.22968 0.62644 0.41969 1.0477l0.43879 0.75741 0.39981 0.45807c0.26185 0.22455 0.63652 0.4935 0.81949 0.59221l0.36592 0.21822-0.06554 0.1324c-0.05165 0.11892-0.18347 0.51087-0.2196 0.88552l0.0425 0.693 0.1148 0.48216c0.08963 0.26524 0.3182 0.66224 0.50771 0.88222 0.18952 0.21998 0.32171 0.4167 0.29376 0.4371-0.02795 0.02039-0.32998 0.19318-0.67103 0.38376l-0.57213 0.38162-1.0207 0.88513-0.76898 0.95545-0.39709 0.68548c-0.19856 0.3964-0.36822 1.157-0.45037 1.5899l-0.06556 0.74032 0.01615 0.71474 0.15986 0.7499 0.33173 0.70693 0.4757 0.58948 0.60335 0.44869c0.33833 0.22735 0.92573 0.49 1.2321 0.58366 3.0006 0.91727 6.873-2.1855 8.1768-6.4159l0.05599-0.15768-0.18684-0.36878-0.22257 0.46349-0.73266 1.5582-1.0563 1.6751-0.8523 0.94068-0.96001 0.7998-0.87033 0.52878-0.91833 0.44649-0.78635 0.19053-0.94231-0.05555-0.59355-0.17078-0.5573-0.20593-0.61933-0.40336-0.55934-0.4617-0.42532-0.72944-0.19737-0.72945-0.03069-0.85781 0.10101-0.96301 0.30196-0.83122 0.3497-0.62029 0.77766-1.0285 0.87338-0.81754 0.65797-0.45568 0.67023-0.37366 0.70602 0.45782 0.70602 0.36406 0.45038 0.09672 0.37866 0.0147 0.46928-0.15775 0.3133-0.29837 0.05999-0.35106c0.03364-0.1968-0.07933-0.4689-0.1763-0.59842l-0.2603-0.21194-0.38448-0.11925-0.48048-0.06065-0.59884 0.07593c-0.33596 0.06115-0.75623 0.17303-0.94325 0.14586l-0.2604-0.17616-0.2972-0.40758c-0.16339-0.22416-0.3483-0.62652-0.4109-0.89439l-0.06574-0.49879 0.08749-0.48545 0.13574-0.49717h0.17656c0.09717 0 0.65456 0.11932 1.2384 0.26516l1.0783 0.24859 0.94224 0.08286 0.85741-0.06629 0.44435-0.16754c0.62637-0.20483 1.3636-0.83699 1.6432-1.2067l0.20865-0.38246 0.08538-0.64166-0.11823-0.65824-0.32928-0.44409-0.41386-0.3778-0.48756-0.23978zm-0.74977 0.40421 0.65751-0.04117 0.62331 0.24056 0.43294 0.43917 0.27998 0.47232 0.11215 0.52617-0.0745 0.54275-0.44832 0.4516-0.48199 0.33559-0.63921 0.31125c-0.57674 0.28083-1.7545 0.20114-3.4201-0.26697l-0.78185-0.22192-7e-3 -0.01447c-0.04218-0.08715 0.36903-0.57222 0.73642-0.94084 0.84784-0.85069 1.337-1.3583 2.2848-1.6277zm-19.305 0.17214-0.67699 0.11036-0.53276 0.4265-0.47695 0.63493c-0.26242 0.34915-0.8848 1.4035-1.3829 2.3432-0.49809 0.93973-1.1496 2.0966-1.4917 2.5705-0.30276 0.49842-0.5107 0.84723-0.69866 1.1118l-0.08807 0.04654-0.51335 0.03683c-0.39524 9.18e-4 -0.85461 0.04868-1.0157 0.09089l-0.28846 0.06449-0.0692 0.25817-0.0692 0.25843 0.22615-0.06059c0.12446-0.03333 0.52186-0.09986 0.88286-0.14786l0.64931-0.03837-0.36775 0.5907c-1.6079 2.7438-2.8058 3.921-4.1765 4.1045l-0.61324 0.03029-0.46661-0.10617c-0.63093-0.20338-1.1332-0.59719-1.3969-1.0953l-0.2121-0.40085-0.10181-0.56709 0.0679-0.43451 0.19513-0.63286c0.28352-0.53548 0.86328-1.0565 1.5425-1.2284 1.0971-0.27767 1.4325-0.27567 2.0759-0.50883l0.28098-0.11781-1.7288 0.17589-0.74738 0.1716-0.56047 0.23124c-1.8088 0.9084-2.1134 2.9783-0.63072 4.285l0.59891 0.38324 0.64822 0.24599 0.69886 0.08002 0.64028-0.07121 0.64027-0.1375 0.6546-0.42544 0.63788-0.55802 0.81764-0.89828c0.44043-0.56696 0.96574-1.3127 1.1671-1.6572 0.20132-0.34453 0.47547-0.80987 0.55061-0.94814l0.15697-0.2266c0.3895-0.56229 2.3611-0.33375 4.6911-0.21968 0.037 0.0018-0.36779 1.075-0.78237 2.2003-1.2894 3.4999-1.4805 4.4439-1.091 5.3946l0.29098 0.48785 0.31403 0.3154c0.21228 0.14763 0.6177 0.34813 0.90089 0.44564 1.1444 0.17286 1.8377 0.36655 0.22949-0.35137l-0.88466-0.5238-0.35194-0.44523-0.11196-0.37466-0.02837-0.82189 0.09159-0.79845 0.813-2.3917c0.46044-1.3027 1.2386-3.5618 1.7291-5.0202l0.79588-2.6985 0.16598-0.83742c0.08599-1.0876-0.04826-1.5445-0.44726-1.9175l-0.2801-0.26185-0.39928-0.15602zm0.12992 0.53918c0.12805-0.0014 0.25386 0.0091 0.34651 0.03185l0.26471 0.1412 0.29469 0.36193 0.15072 0.43224 0.0033 0.72576-0.12865 0.73773-0.75792 2.3864c-0.4499 1.3125-0.74683 2.0568-0.7732 2.0322l-0.18722-0.0025-1.9861-0.10731c-1.1555-0.06243-2.104-0.034-2.104-0.07562s0.2663-0.44433 0.59174-0.89491c0.32543-0.45058 1.0333-1.6654 1.5733-2.6995l1.0535-1.8802 0.42856-0.52954 0.50055-0.47069 0.36959-0.14922c0.10163-0.02491 0.23199-0.03842 0.36003-0.03988zm7.1346-0.2129-0.34975 0.3933c-0.2279 0.25628-0.04515-0.18157 0.55797 1.3215 0.26068 0.64967 0.65508 1.6681 0.86973 2.5103l0.23367 1.2942 0.06745 2.096-0.11852 2.0257-0.22933 1.12c-0.29832 1.1728-0.83179 2.3772-1.4232 3.3298l-0.58264 0.81269 0.33371 0.47036c0.61874-0.61573 1.2203-1.7934 1.8418-3.4817l0.32121-1.0956 0.24832-1.425c0.4173-3.062 0.13673-4.95-1.1901-8.0099zm10.295 6.0524c0.17382-0.0063 0.32626 9.18e-4 0.41544 0.0228l0.25226 0.09122 0.1451 0.20502-0.01063 0.20528-0.04685 0.19376-0.19056 0.13517-0.32086 0.03885-0.3086-0.06663-0.5809-0.29797-0.53263-0.35657 0.63471-0.11393c0.17454-0.0313 0.36968-0.05075 0.5435-0.05697z" fill="#000" filter="url(#filter3)" stroke="#000" stroke-width=".134" style="mix-blend-mode:normal"/></svg>
